<?xml version="1.0" encoding="utf-8"?>
<!-- Generator: Adobe Illustrator 26.3.1, SVG Export Plug-In . SVG Version: 6.00 Build 0)  -->
<svg version="1.1" id="Laag_1" xmlns="http://www.w3.org/2000/svg" xmlns:xlink="http://www.w3.org/1999/xlink" x="0px" y="0px"
	 viewBox="0 0 807.6 405.2" style="enable-background:new 0 0 807.6 405.2;" xml:space="preserve">
<g>
	<g>
		<path d="M303.7,57v169h169v-96.6h-18.6v77.9H322.3V76.1h77.9V57H303.7z M454.1,25.8V57h-31.7v19.1h31.7v31.2h18.6V76.1h31.2V57
			h-31.2V25.8H454.1z"/>
		<path d="M400.3,182.2V99.7h-16.6c0,5.5-2,10.1-5,12.6s-7.5,3.5-13.1,3.5h-2v13.6h17.6v52.8H400.3z"/>
	</g>
	<g>
		<path d="M166.5,291.3c-24.9,0-40.8,18.9-40.8,44.3s15.9,43.8,40.8,43.8s40.8-18.5,40.8-43.8S191.5,291.3,166.5,291.3z
			 M166.5,365.6c-15.9,0-23.6-13.3-23.6-30.1c0-16.8,8.2-30.1,23.6-30.1s23.2,13.3,23.2,30.1C189.7,352.3,182.4,365.2,166.5,365.6z"
			/>
		<path d="M274,337.7c0,6,0.4,14.6,0.4,14.6H274c0,0-3.4-7.3-6-12L239.6,293H222v84.7h16.8v-43.8c0-5.6-0.4-14.6-0.4-14.6h0.4
			c0,0,3.4,7.3,6,11.6l29.2,46.9h16.8V293H274V337.7z"/>
		<polygon points="326.9,340.3 366.4,340.3 366.4,326.1 326.9,326.1 326.9,307.2 372,307.2 372,293 309.7,293 309.7,377.7 
			372.4,377.7 372.4,363.1 326.9,363.1 		"/>
		<path d="M426.6,293H390v84.2h17.6v-30.5h20.6c17.6,0,28.4-10.7,28.4-26.6c0-7.7-3-14.6-7.7-19.3C443.8,296,436.5,293,426.6,293z
			 M424.4,333h-17.6v-25h18.1c8.2,0,13.3,4.7,13.3,12.5C438.2,327.8,433.5,333,424.4,333z"/>
		<polygon points="485.9,293 468.7,293 468.7,377.7 525.4,377.7 525.4,363.1 485.9,363.1 		"/>
		<path d="M583.9,350.6c0,8.6-5.2,15-15.9,15c-11.6,0-15.9-6.4-15.9-15V293h-17.2v57.2l0,0c0,18.5,11.2,28.8,33.5,29.2
			c21.5,0,32.7-10.7,32.7-28.8V293h-17.2L583.9,350.6L583.9,350.6z"/>
		<path d="M650.1,326.5c-12.5-2.6-18.5-4.7-18.5-11.6c0-6,6.4-9.9,15.5-9.9c8.6,0,15.5,4.3,16.3,12.9h16.3
			c-1.3-16.8-13.8-26.2-32.7-26.2c-18.5,0-32.2,8.6-32.2,25.4c0,17.6,14.2,21.5,29.2,24.9c12.9,3,21.1,4.7,21.1,12.9
			c0,7.7-7.7,10.7-16.3,10.7c-12,0-17.6-3.9-18.9-14.2h-16.8l0,0c0.4,17.6,13.3,27.9,35.7,27.9c19.3,0,33.1-9.5,33.1-26.6
			C681.9,334.3,667.7,330.4,650.1,326.5z"/>
	</g>
</g>
</svg>
