<?xml version="1.0" encoding="utf-8"?>
<!-- Generator: Adobe Illustrator 25.3.1, SVG Export Plug-In . SVG Version: 6.00 Build 0)  -->
<svg version="1.1" id="Laag_1" xmlns="http://www.w3.org/2000/svg" xmlns:xlink="http://www.w3.org/1999/xlink" x="0px" y="0px"
	 viewBox="0 0 807.6 405.2" style="enable-background:new 0 0 807.6 405.2;" xml:space="preserve">

<g>
	<path 
		d="M279.4,52.3v161.8h248.8V52.3H279.4z M509.9,120.9c-18.6-26.6-50.5-45.6-88-50.3h88V120.9z M435.3,92.5
		l0.3,0.3c24.1,6.9,44.2,21.5,56.2,40.4l-0.1,0.1c-11.5,18.1-30.4,32.2-53.2,39.4l-0.1,0c10.7-9.5,17.4-23.4,17.4-38.8
		C455.7,117,447.7,102,435.3,92.5z M369.2,172.5l0.3,0.2c-23-7.2-42-21.4-53.6-39.6v0c12-18.8,32-33.4,56.1-40.3l0.1-0.1
		c-12.3,9.5-20.2,24.4-20.2,41.1C351.9,149.2,358.6,163,369.2,172.5z M403.8,101.6c17.8,0,32.2,14.4,32.2,32.2
		c0,17.8-14.4,32.2-32.2,32.2c-17.8,0-32.2-14.4-32.2-32.2C371.6,116.1,386,101.6,403.8,101.6z M385.8,70.6
		c-37.5,4.7-69.4,23.7-88,50.3V70.6H385.8z M297.8,145.4c18.6,26.6,50.6,45.6,88.1,50.3h-88.1V145.4z M421.8,195.7
		c37.5-4.7,69.5-23.7,88.1-50.3v50.3H421.8z"
		fill="currentcolor"
		/>
	<g>
		<polygon 
		points="98,265.3 82.4,265.3 81.2,265.3 81.2,266.5 81,299.2 46.7,299.2 46.9,266.5 46.9,265.3 45.7,265.3 
			30.2,265.3 29.1,265.3 29.1,266.5 28.3,349.6 28.3,350.8 29.5,350.8 45,350.8 46.2,350.8 46.2,349.7 46.7,314.8 81,314.8 
			80.5,349.6 80.5,350.8 81.7,350.8 97.3,350.8 98.5,350.8 98.5,349.7 99.2,266.5 99.2,265.3"
			fill="currentcolor"
			/>
		<g>
			<path d="M180.3,346.6l-29.7-80.5l-0.3-0.8h-0.8h-14.2h-0.8l-0.3,0.7l-32,80.5l-0.5,1.2l1.2,0.4l14.3,4.3l1,0.3l0.4-1
				l9.1-23.1h27.3l7.9,23l0.4,1.1l1.1-0.3l15-4.3l1.2-0.4L180.3,346.6z M131.5,315l10.5-32.4h0.2l9.6,32.4H131.5z"
				fill="currentcolor"
				/>
		</g>
		<polygon points="254.9,265.3 239.5,265.3 238.3,265.3 238.3,266.5 239.2,324.6 202.4,264.2 201.9,263.4 201.1,263.7 
			186.8,268 185.9,268.3 185.9,269.1 185.2,349.6 185.2,350.8 186.4,350.8 201.8,350.8 203,350.8 202.9,349.6 201.8,292 
			237.7,351.9 238.1,352.7 239,352.5 254.5,348.1 255.3,347.9 255.3,347 256.1,266.5 256.1,265.3"
			fill="currentcolor"
			/>
		<path d="M295,278.5c5.4,0,9.7,2.4,14.4,4.9l0.8,0.4l1,0.5l0.6-1l6.5-11.1l0.6-1l-1-0.6c-8.2-4.7-16.3-7.1-24-7.1
			c-16.8,0-28.9,10.7-28.9,25.3c0,16.9,11.7,21.9,21.1,25.9c7.2,3.1,12.9,5.5,13,12c0,6.5-4.9,10.8-12.2,10.8
			c-4.2,0-10.2-2.8-14-5.4l-1.1-0.8l-0.6,1.2l-6,11.8l-0.5,1l1,0.6c7.4,4.3,15.2,6.5,23.2,6.5c8.4,0,16-2.9,21.3-8.2
			c4.8-4.8,7.4-11.2,7.4-18c0-15.6-11.8-20.9-21.3-25.2c-7.3-3.3-13.6-6.1-13.6-12.5c0-2.6,0.9-4.8,2.6-6.5
			C287.5,279.8,291,278.5,295,278.5z"
			fill="currentcolor"
			/>
		<polygon points="505.7,265.3 490.4,265.3 489.2,265.3 489.2,266.5 490.1,324.6 453.3,264.2 452.8,263.4 451.9,263.7 
			437.6,268 436.8,268.3 436.8,269.1 436.1,349.6 436.1,350.8 437.2,350.8 452.6,350.8 453.8,350.8 453.8,349.6 452.7,292 
			488.5,351.9 489,352.7 489.8,352.5 505.3,348.1 506.2,347.9 506.2,347 506.9,266.5 506.9,265.3"
			fill="currentcolor"
			/>
		<path d="M583,277.7c-8.1-8.1-19.6-12.4-33.3-12.4h-27.4h-1.2l0,1.2l-0.7,83.2l0,1.2h1.2h28.6c12,0,23.6-4.8,32-13.2
			c7.9-7.9,12.3-18.6,12.3-30.1C594.5,295.6,590.5,285.3,583,277.7z M547.1,335.3h-8.8l0.5-54.4h11.5c7.3,0,13.7,2.5,18.4,7.2
			c4.8,4.8,7.5,11.7,7.5,19.4C576.1,324.6,565,335.3,547.1,335.3z"
			fill="currentcolor"
			/>
		<polygon points="647.8,265.3 603.3,265.3 602.1,265.3 602.1,266.5 601.3,349.6 601.3,350.8 602.5,350.8 647.8,350.8 
			649,350.8 649,349.7 649,336.4 649,335.3 647.8,335.3 619.4,335.3 619.5,314.8 647.3,314.8 648.5,314.8 648.5,313.6 648.5,301.1 
			648.5,299.9 647.3,299.9 619.6,299.9 619.9,280.9 647.8,280.9 649,280.9 649,279.7 649,266.5 649,265.3"
			fill="currentcolor"
			/>
		<path d="M755.5,278.5c5.4,0,9.8,2.4,14.4,4.9l0.8,0.4l1,0.5l0.6-1l6.5-11.1l0.6-1l-1-0.6c-8.2-4.7-16.3-7.1-24-7.1
			c-16.8,0-28.9,10.7-28.9,25.3c0,16.9,11.7,21.9,21.1,25.9c7.2,3.1,13,5.5,13,12c0,6.5-4.9,10.8-12.2,10.8c-4.2,0-10.2-2.8-14-5.4
			l-1.1-0.8l-0.6,1.2l-6,11.8l-0.5,1l1,0.6c7.4,4.3,15.2,6.5,23.2,6.5c8.4,0,16-2.9,21.3-8.2c4.8-4.8,7.4-11.2,7.4-18
			c0-15.6-11.8-20.9-21.3-25.2c-7.3-3.3-13.6-6.1-13.6-12.5c0-2.6,0.9-4.8,2.6-6.5C747.9,279.8,751.5,278.5,755.5,278.5z"
			fill="currentcolor"
			/>
		<path d="M724.1,342.5l-22.7-29.8c9.8-4.1,15.4-12,15.4-22.2c0-7.1-2.3-13.2-6.6-17.5c-5.1-5.1-12.8-7.7-22.8-7.7H661
			h-1.2l0,1.2l-0.8,83.2l0,1.2h1.2h15.7h1.2l0-1.2l0.1-32.1h3.6c2,0,3.4,0.7,4.6,2.4c0,0,23.1,32.1,23.1,32.1l0.6,0.9l0.9-0.6
			l13.7-8.2l1.1-0.7L724.1,342.5z M685.8,302.7h-8.3l0.2-22.5h7.7c4.2,0,7.8,1.3,10.1,3.5c1.9,1.9,2.8,4.3,2.8,7.3
			C698.3,302.1,687.9,302.7,685.8,302.7z"
			fill="currentcolor"
			/>
		<g>
			<path d="M431.2,346.6l-29.7-80.5l-0.3-0.8h-0.8h-14.2h-0.8l-0.3,0.7l-32,80.5l-0.5,1.2l1.2,0.4l14.3,4.3l1,0.3l0.4-1
				l9.1-23.1h27.3l7.9,23l0.4,1.1l1.1-0.3l15-4.3l1.2-0.4L431.2,346.6z M382.4,315l10.5-32.4h0.2l9.6,32.4H382.4z"
				fill="currentcolor"
				/>
		</g>
	</g>
</g>
</svg>
