<?xml version="1.0" encoding="utf-8"?>
<!-- Generator: Adobe Illustrator 26.3.1, SVG Export Plug-In . SVG Version: 6.00 Build 0)  -->
<svg version="1.1" id="Layer_1" xmlns="http://www.w3.org/2000/svg" xmlns:xlink="http://www.w3.org/1999/xlink" x="0px" y="0px"
	 viewBox="0 0 261 102" style="enable-background:new 0 0 261 102;" xml:space="preserve">
<style type="text/css">
</style>
<g>
	<polygon
		points="26.1,44.1 26.1,44.1 15.9,34 5.2,44.7 11,50.4 11,85.4 11,85.4 11,85.4 21.1,95.5 31.8,84.8 26.1,79.1"
		fill="currentcolor"
	/>
	<polygon 
		points="54.3,44.1 54.3,44.1 44.1,34 33.4,44.7 39.2,50.4 39.2,85.4 39.2,85.4 39.2,85.4 49.3,95.5 60,84.8 54.3,79.1"
		fill="currentcolor"
	/>
	<polygon 
		points="82.5,44.1 82.5,44.1 72.3,34 61.6,44.7 67.4,50.4 67.4,85.4 77.5,95.5 88.2,84.8 82.5,79.1"
		fill="currentcolor"
	/>
	<polygon  
		points="221.2,44.1 221.2,44.1 211,34 200.3,44.7 206,50.4 206,85.4 206,85.4 206,85.4 216.2,95.5 226.9,84.8 221.2,79.1"
		fill="currentcolor"
	/>
	<polygon  
		points="249.4,79.1 249.4,44.1 249.4,44.1 239.2,34 228.5,44.7 234.2,50.4 234.2,85.4 244.4,95.5 255.1,84.8"
		fill="currentcolor"
	/>
	<polygon  
		points="170.9,63.1 165.6,57.7 165.6,55.8 177,44.3 166.3,33.6 150.4,49.6 150.4,49.6 150.4,63.8 150.3,63.9 150.4,63.9 150.4,64 150.4,64 160.2,73.8"
		fill="currentcolor"
	/>
	<polygon  
		points="195,64.7 194.9,64.7 194.9,64.6 194.9,64.6 185.1,54.9 174.4,65.6 179.7,70.9 179.7,72.8 168.3,84.3 179,95 194.9,79 194.9,79 194.9,64.8"
		fill="currentcolor"
	/>
	<polygon  
		points="110.7,15.7 110.7,15.7 110.7,15.7 100.5,5.5 89.8,16.2 95.6,21.9 95.6,85.4 95.6,85.4 95.6,85.4 105.7,95.5 116.4,84.8 110.7,79.1"
		fill="currentcolor"
	/>
	<polygon  
		points="139.2,85.3 139.2,44.1 139.2,44.1 128.5,33.4 118.9,44.1 124,49.9 124,79.1 118.3,84.8 129,95.5 139.2,85.4"
		fill="currentcolor"
	/>
</g>
</svg>
