<?xml version="1.0" encoding="utf-8"?>
<!-- Generator: Adobe Illustrator 26.3.1, SVG Export Plug-In . SVG Version: 6.00 Build 0)  -->
<svg version="1.1" id="Laag_1" xmlns="http://www.w3.org/2000/svg" xmlns:xlink="http://www.w3.org/1999/xlink" x="0px" y="0px"
	 viewBox="0 0 807.6 405.2" style="enable-background:new 0 0 807.6 405.2;" xml:space="preserve">
<path d="M402.7,321.5c0-12.8,10.3-23.1,23.1-23.1c12.8,0,23.1,10.3,23.1,23.1c0,12.7-10.2,23.1-23,23.1h-0.1
	c-12.7,0.1-23.1-10.2-23.1-22.9C402.7,321.7,402.7,321.6,402.7,321.5 M496.8,321.6c0-12.8,10.3-23.1,23.1-23.1s23.1,10.3,23.1,23.1
	c0,12.8-10.3,23.1-23.1,23.1c-12.7,0.1-23.1-10.2-23.1-22.9C496.8,321.7,496.8,321.6,496.8,321.6 M278.7,321.6
	c0-12.8,10.3-23.1,23.1-23.1s23.1,10.3,23.1,23.1c0,12.8-10.3,23.1-23.1,23.1c-12.7,0-23.1-10.2-23.1-23V321.6 M184.6,321.6
	c0-12.8,10.3-23.1,23.1-23.1s23.1,10.3,23.1,23.1c0,12.7-10.2,23.1-23,23.1c-0.1,0-0.1,0-0.2,0c-12.7,0-23.1-10.3-23.1-23
	C184.7,321.6,184.7,321.6,184.6,321.6 M374.9,280.7h-20.1v80.9h20.1V280.7z M230.7,361.6h20.1v-80.9h-20.1v6.5
	c-7-4.9-15.4-7.5-23.9-7.4c-23.1,0-41.8,18.7-41.8,41.8c0,23.3,18.7,41.8,41.8,41.8c8.9,0,17.1-2.7,23.9-7.4V361.6z M542.9,361.6
	H563v-80.9h-20.1v6.5c-7-4.9-15.4-7.5-23.9-7.4c-23.1,0-41.8,18.7-41.8,41.8c-0.1,23,18.5,41.7,41.5,41.8c0.1,0,0.2,0,0.3,0
	c8.9,0,17.1-2.7,23.9-7.4V361.6z M570.5,335.3c0.6,16.3,14.6,27.9,37.8,27.9c19,0,34.7-8.2,34.7-26.4c0-12.7-7.1-20.1-23.6-23.3
	l-12.8-2.5c-8.2-1.6-13.9-3.2-13.9-8.1c0-5.4,5.5-7.8,12.5-7.8c10.2,0,14.3,5.1,14.6,11.1H640c-1.1-15.8-13.8-26.4-34.2-26.4
	c-21.1,0-33.6,11.6-33.6,26.6c0,18.4,14.9,21.4,27.7,23.8l10.6,1.9c7.6,1.4,10.9,3.6,10.9,8.1c0,4-3.8,7.9-12.8,7.9
	c-13.1,0-17.4-6.8-17.6-12.7C591.1,335.3,570.5,335.3,570.5,335.3z M324.8,253.1v34.1c-7-4.9-15.4-7.5-23.9-7.4
	c-23.1,0-41.8,18.7-41.8,41.8c0,23.3,18.7,41.8,41.8,41.8c8.8,0,17.1-2.7,23.9-7.4v5.7h20.1V253.1H324.8z M448.8,253.1v34.1
	c-7-4.9-15.4-7.5-23.9-7.4c-23.1,0-41.8,18.7-41.8,41.8c-0.1,23,18.5,41.7,41.5,41.8c0.1,0,0.2,0,0.3,0c8.9,0,17.1-2.7,23.9-7.4v5.7
	h20.1V253.1H448.8z M217.3,229.2l13.6,23.9h93.9l-37.2-64.3L217.3,229.2L217.3,229.2z M374.9,273.2v-20.1h74L370,116.6L299.5,157
	l55.3,96.1v20.1C354.7,273.2,374.9,273.2,374.9,273.2z M478.8,253.1h94.1L451.2,42.6l-70.3,40.6L478.8,253.1z"/>
</svg>
