<?xml version="1.0" encoding="utf-8"?>
<!-- Generator: Adobe Illustrator 25.3.1, SVG Export Plug-In . SVG Version: 6.00 Build 0)  -->
<svg version="1.1" id="Laag_1" xmlns="http://www.w3.org/2000/svg" xmlns:xlink="http://www.w3.org/1999/xlink" x="0px" y="0px"
	 viewBox="0 0 807.6 405.2" style="enable-background:new 0 0 807.6 405.2;" xml:space="preserve">
<style type="text/css">
	.st0{fill:#FFFFFF;}
</style>
<g>
	<path class="st0" d="M550.4,325.7v26.2c-14.5,7.3-28.3,10.9-42.1,10.9c-38.1,0-61-22.5-61-50.9c0-30.5,26.2-56,59.6-56
		c8.4,0,14.5,1.4,21.1,3.6c4.7,1.4,7.6,3.3,10.5,3.3c2.5,0,3.3-4.4,3.6-6.9h3.6l3.3,35.2h-4.4c-1.8-6.9-5.1-12.7-9.5-16.7
		c-6.9-6.9-16.3-10.5-27.2-10.5c-22.9,0-36.3,18.2-36.3,45.4c0,26.9,16.3,45.4,38.1,45.4c6.5,0,12.3-1.5,19.6-4.7v-26.9
		c0-8.7-1.5-12-13.8-12v-4h46.1v4C550,311.1,550.4,314.7,550.4,325.7 M423.6,282.8v78.1h-6.2l-78.1-80.7c0.4,2.2,0.4,4,0.4,6.2v49.1
		c0,15.3,0,20.7,13.8,20.7v4h-36.7v-4c13.8,0,13.8-6.5,13.8-20.7v-56c0-8.4,0-17.4-14.5-17.4v-4h34.5l64.3,66.1
		c-0.4-1.8-0.4-2.9-0.4-5.4v-36c0-14.5,0.4-20.7-13.4-20.7v-4h36.7v4C424.3,262.1,423.6,267.9,423.6,282.8 M246,360.2v-4
		c8.7,0,14.9-0.7,14.9-13.4v-67.2c0-13.1-4.7-13.4-14.9-13.4v-4h51.6v4c-10.5,0-14.9,0.4-14.9,13.4v67.2c0,12.7,5.4,13.4,14.9,13.4
		v4L246,360.2z"/>
	<path class="st0" d="M373.7,108.5v-2.7h-4.9l-0.4,0.9L373.7,108.5z M348.6,105.8c-1.3-1.3-3.1,0-5.4-0.5c0,0.5-0.4,1.8,0.9,2.7
		C345.9,106.7,348.1,105.8,348.6,105.8 M379.5,80.2c0,0,0.9,0,0-0.5l-10.3-0.9c-1.3,0.9-3.1,0.9-3.6,2.3l-0.9,0.4
		c0.9,3.6,0.9,7.6,0.9,11.7c1.8,0.5,4,1.8,4,4.5c1.8,0.9,4.1,1.3,5.4,2.7c0.9-0.4,1.8-1.8,2.2-3.1c-2.2-2.2-6.3-0.9-6.3-4.9
		l-2.7-1.3c0-2.7,0-5.4-0.9-7.2l0.9-0.9c0,0.9,0.4,1.3,1.3,2.3c1.8,0,4.1,0.4,5.4-0.9c0.9-0.4,0.9-2.7,2.2-2.7
		C377.7,81.5,379.1,81.5,379.5,80.2 M352.2,81.1c0-0.9-0.9-1.8-2.2-2.3h-11.2c0,1.3,1.3,2.7,2.7,2.7c0,1.3,1.4,2.2,2.2,2.7
		c0.9,0.9,1.8,0.9,3.1,0c1.3,0.9,1.8-1.3,2.2,0c0,2.7,0,4-0.5,6.3c-0.5,3.1-3.6,2.7-5.4,4.5c-0.4,0.9-1.8,3.6-0.4,4.9
		c1.3-0.9,2.7-1.3,4.5-2.2c0-1.3,1.8-2.7,3.6-4C350.8,89.6,352.2,85.6,352.2,81.1 M356.2,70.3c-1.3-0.9-4,0.4-5.4,1.3
		c-1.8,0.4-3.6,1.8-3.6,3.1h5.4C353.5,73.4,354.9,71.7,356.2,70.3 M371.9,74.8c0-1.4-0.4-1.4-0.9-1.8c-2.2,0-2.2-3.6-4-2.7
		c-1.3,0-2.2-0.9-3.1,0c-0.5,0.4,0,0.4,0.4,0.4c2.7,0,1.3,3.6,3.1,4L371.9,74.8z M387.6,72.1c0.9-2.7,1.4-6.7-0.4-9.4
		c-1.3-1.3-3.6-2.7-5.8-4l-3.6,1.3c-1.8,1.3-2.7,2.7-2.7,5.4c3.1,1.3,6.7,4.9,8.1,8.1h1.3C385.8,72.1,387.2,73.4,387.6,72.1
		 M345.9,65.4c-0.4-4.5-5.8-5.4-8.5-6.7H336c-4,0.9-4.9,4.9-5.4,8.1c1.3,4,4,1.3,6.3,4C338.7,69.4,343.6,66.3,345.9,65.4
		 M290.7,202.7c-0.5,0-1.8-1.3-3.1-1.3c-1.4,2.7,0,4.9,0,8.1c0,0.9-0.5,2.7-0.5,2.7c-0.9,0-2.7-2.3-3.6-3.6v-7.6l4.5-5.4
		C290.7,197.3,291.6,200,290.7,202.7 M303.3,197.3c0,2.2-0.4,4-1.8,5.4c-0.4-1.8-1.8-4-4-4c-1.8,3.6-2.2,4.9-0.5,10.8
		c-1.3,0.9-2.7,1.4-4,2.7c-0.9-2.3-1.3-5.4-1.3-7.2c0-3.1,0.9-6.3,1.8-9c0.9-1.8,2.3-4,3.6-5.4l4.9-0.4c-1.8,0.4-1.8,2.7-1.8,4
		C301,194.6,303.3,195.1,303.3,197.3 M319.4,200c0,4-5.8,9.4-5.8,9.4c0-2.7,0.9-5.4,1.3-8.1c0,0-1.8-1.8-4-1.8
		c-1.3,0.5-1.3,1.8-1.8,3.2c-1.3,2.7-4,5.4-4.9,8.1c-0.4,0-0.4-0.5-0.4-0.5c0-4,0.4-12.6,3.6-15.7c2.7-2.7,4-2.7,6.7-3.1l2.7,0.5
		l-1.8,2.7C316.7,195.5,319.4,197.3,319.4,200 M395.2,201.4l-1.3,1.3c-1.3-1.3-0.5-5.4-2.7-5.8c-2.2,0-4-2.2-4.9-2.7l1.3-0.9
		c0,0,1.4-0.4,2.2,0c0.9,0.9,1.8,1.3,1.8,2.7c0.9,0.9,2.3,0,3.1,0.9C395.2,198.2,395.7,200,395.2,201.4 M411.4,194.6
		c-0.5,1.3-0.9,3.6-1.4,5.4c-1.3-2.7-2.2-6.7-5.4-6.7c-0.4-1.8-0.9-3.1-2.7-4l-4-0.4c0.4,1.4,3.1,1.8,1.8,4.5c1.3,1.3,3.1,1.3,4,3.6
		c0.9,1.3,0,3.2,0.4,4.5l-3.1,1.3c0-2.7,0.9-6.7-2.7-8.1c-2.7,0.9-3.1-2.7-4.9-4c-0.9-0.4-0.9-2.7-2.2-1.3c-2.2,1.3-5.4,0-7.6,1.3
		l2.2-4c1.8-1.3,4-0.5,5.8-1.3l3.6-0.5c4,0,7.2,1.8,10.8,3.1c1.8,1.3,2.7,2.7,2.7,5C410.1,193.3,411.9,193.3,411.4,194.6
		 M484.1,194.2c-0.9,1.3-1.3,1.8-1.8,2.7c0-2.2-2.7-3.6-4.5-7.6l1.8-3.1c1.8,0.5,3.2,1.8,3.2,4c0,0.4-0.5,1.8,0,2.7
		C482.8,193.3,484.1,193.3,484.1,194.2 M332.4,195.5l-1.3,4.5l-3.1-8.1c-4-4-8.1-4.5-10.8-5.8c-1.3-0.9-1.3,0.5-2.7,0
		c0-1.3,0.4-2.7,1.8-4h2.7l2.7,1.3c1.8,1.3,4.9,1.3,4.9,4c0,0.9-0.4,1.3,0.5,2.7l4.9,1.8L332.4,195.5z M469.7,190.6
		c0,0.5-0.9,1.4-0.9,1.4c-2.2-1.4-4-2.2-6.7-2.2c0-1.3-0.9-3.6-1.8-3.6c-3.1,0-2.7,1.3-4.9,1.3l4-4c0.4-0.9,0.9-0.9,1.8-0.9
		c1.3,0.9,1.8,1.3,3.1,1.3c0,0.9,0,1.3-0.4,2.7c0.9,0.9,2.2,0,3.1,0.9C468.4,187.9,469.7,188.8,469.7,190.6 M416.8,193.3h-0.4
		c-0.9-1.3-1.3-2.7-2.2-2.7c1.3-5.4-1.3-9.4-2.2-13.9l-0.5-1.3c1.8,2.2,5.4,4.5,4.9,7.2C416.8,186.6,417.2,190.2,416.8,193.3
		 M339.6,188.8l-3.1,3.1c-0.9-1.4,0-4-1.8-5.4c0-0.5,1.3-1.3,0.9-1.8c-0.9-0.9-6.3-2.7-6.3-2.7c-2.2-1.3-4-2.7-5.8-4.9
		c-2.2-0.5-3.6,0.9-5.8,1.3c-0.4-0.4-0.4-1.3-0.4-1.3c1.4-1.4,1.4-4,4-4c1.3,0,3.1,0,4.5,1.3c1.8,0,2.7,1.8,4,2.2
		c2.3,2.7,4,3.1,5.8,4.5c-0.5,1.4,0.4,2.2,1.3,2.7C339.6,183.9,338.7,186.6,339.6,188.8 M487.2,181.6c0,2.7,0,3.6-1.3,5.8l-3.1-4
		c1.3-1.3,1.3-3.6,2.7-5.4C485.9,178,487.2,181.2,487.2,181.6 M407.4,184.8c-2.2-1.3-4.9-1.3-6.3-3.6c-1.3-0.4-3.1-0.4-5.4-0.4
		c-1.8,0.4-4,0.4-5.8,0.4c-0.4,0,0-0.4-0.9-1.3c-2.7,1.3-5.8,1.3-8.5,4l2.2-5.4c1.8,0,3.1-1.3,4.5-1.3c1.4-0.5,3.1-0.5,4.5-0.5v0.5
		c5.4,0,11.2-0.5,15.3,4L407.4,184.8z M474.7,180.7c0,1.8-0.4,2.2-0.9,4.5c-3.6-0.5-3.1-4-4.1-4.5c-1.8-2.7-5.4-0.9-8.1-0.9
		c-0.4-2.7,0.9-2.7,0.9-4c1.4,0,2.7-1.3,4.1-0.4c2.2-0.9,3.6,1.3,5.8,1.3C473.3,178,474.2,179.8,474.7,180.7 M341.8,174
		c0,1.3-0.5,7.2-0.5,7.2c-0.9-3.6-3.1-6.7-5.8-6.7c-1.8-1.3-3.1-2.7-3.6-4c-1.3-1.3-2.7-0.5-4.5-1.3c-1.8,0-4,0-6.3,0.9v-0.9l3.1-4
		c3.6,0.9,7.6,0,9,2.7c1.8,1.4,4,2.2,4.9,3.6v1.4C339.2,173.1,341,173.6,341.8,174 M361.6,173.1c-1.8,1.3-3.6,1.3-5.4,0.9l-2.7-4
		c1.8,0.5,4.5,0.5,6.7,0L361.6,173.1z M440.1,175.3c0,2.2-3.2,5.4-4,7.2c0.9-2.7,1.3-7.2,0-7.2c-0.9-0.5-2.7,0.4-2.7-0.9
		c0-1.3,0.5-3.2,0.5-4.5c0-1.3-1.3-2.2-1.3-3.6c0-2.7,3.1-3.2,4-4.9c0.9,1.8,0.4,4,0.4,5.8c0.5,1.4,1.3,4,0.5,6.3
		C437.4,174.9,440.1,174,440.1,175.3 M406,175.3c-2.2,0-4,0-5.4-2.2c-0.5,0-1.3-1.4-2.2-0.5c-1.8,1.8-4.5-1.4-7.2-0.9
		c-1.3,1.4-3.2,2.2-4.9,2.7l-0.5-0.4c0-1.3,1.3-2.7,2.7-4c3.1,1.3,5.4-4.9,8.5-1.3c0.9,0.4,2.7,0.4,3.6,0.4
		C403.8,170,404.7,173.1,406,175.3 M374.2,172.6h-0.4c-0.9,0-4.1-1.4-4.9-2.7c-0.4-0.9-0.4-2.2-0.4-2.2c1.3,0,2.2-0.4,3.6-0.4
		L374.2,172.6z M476,175.3c-3.1,0-1.3-6.3-8.1-6.3c-1.8,0-2.7,2.2-4.5,2.7c0-0.5,0.5-3.1,0.5-3.1c0-1.4,0.4-2.7,2.2-4
		c3.6,0,2.7,1.3,5.4,2.2c1.8,0.5,2.7,1.8,4.5,1.8L476,175.3z M428.9,170.4c0,2.7-1.3,5.4-1.8,8.1c0-3.1-0.9-5.4-2.7-7.2
		c0-0.9,1.3-1.3,0.5-2.2c0,0-2.7-1.4-2.7-3.2c0-2.2,1.8-3.6,2.7-4.9c0-0.4,1.8,0.9,1.8,3.6c0,0.9,0,1.8-0.4,3.1
		C425.8,169.1,428.9,169.1,428.9,170.4 M450.9,161.4c0,1.8-0.9,3.1-0.4,4.9c-1.4-2.7-2.7-5.4-4-8.1c-0.5,0-0.9,0-0.9-0.4l1.3-0.9
		c0.9,0,2.3,0,2.3,0.9C450,158.7,450.9,160.1,450.9,161.4 M478.3,165c-1.4-0.4-4.5-0.9-4.5-2.2c0-1.8-0.9-2.2-3.1-2.2
		c-2.3,0-3.6,0.4-6.3,1.4c0,0-1.4-1.8-1.8-3.6c0.9-0.4,4.5-1.8,6.3-1.8c3.2,0,6.7,0,6.7,1.8C475.6,159.6,478.3,160.5,478.3,165
		 M360.7,155.6c-0.4,2.7-1.8,3.6-4,6.7c-1.8,0.9-4.5,1.4-7.2,2.7c0.4-1.3,1.8-1.8,2.7-3.1c1.3-1.4,2.7-3.6,3.1-5.4
		C357.6,155.6,358.9,155.6,360.7,155.6 M444.2,161.9c0,2.7-0.5,6.3-0.5,9.4c-1.3,0-1.3-1.3-1.3-2.7c-0.9-2.7-1.3-5.4-2.2-8.1
		c-1.4-4-3.6-7.2-5.4-11.2c-0.5-2.2-2.7-3.1-4.5-4.5c2.2,0,4.5,0.4,6.3,1.8c0,1.3,0.4,1.8,1.8,3.1c3.2,0,2.7,4,5.4,6.3
		c0,0.4-0.9,0.4-1.3,1.4c-0.9,0-1.3,1.8-1.3,1.8C442.4,160.1,443.7,160.5,444.2,161.9 M352.2,151.6c-1.4,2.7-2.7,5.4-5.4,6.7
		c-1.8,0-4,0.9-6.7,0c1.3-1.3,2.7-1.8,4.5-2.7l4-4H352.2z M379.1,158.3c-1.3,0.9-4,1.3-5.4,1.3c-3.6-1.8-3.6-5.4-6.7-6.7
		c-0.5-0.5-0.9-1.3-0.9-1.8l7.6,1.3c-0.5,1.3,0.4,1.8,1.3,1.8C376.4,155.6,377.7,156.9,379.1,158.3 M432,158.3
		c-0.4,0.9-1.3,1.3-1.8,1.3c0,0-2.3-2.2-2.7-4c-0.5-2.2,0.9-5.4,0.9-5.4c0.4,0,0.9,0.9,1.8,0.9c0.4,0.4,0,1.8,0.4,3.1
		C431.6,155.6,432.9,156.9,432,158.3 M339.6,150.2l-2.2,6.7c-2.3,2.2-5.4,1.3-8.1,1.3c4-1.3,6.7-5.4,8.1-8.1
		C338.3,149.8,338.7,150.2,339.6,150.2 M395.2,155.6h-1.3c-5.4,1.3-9.4-1.8-13.5-4.5c2.7-0.9,4.9-0.9,6.7-1.3h1.4l1.8,2.7
		C391.7,152.9,393.9,154.3,395.2,155.6 M482.3,155.1c-3.1,0-6.3-1.4-6.7-2.7c-0.9-0.9-0.4-2.7-2.2-2.7c-1.3,0-2.2,1.3-2.2,1.3
		c-1.4,0.4-4-1.3-4,0c0,2.2-2.2,3.1-4,3.1c-1.3,0-1.8,0-3.1-0.5v-4.5c6.3,0,5.8-2.2,8.5-2.2c1.8,0,3.1,1.3,4.9,1.3
		c2.2,0,0.9-0.9,3.1-0.9c2.3,0,3.1,1.8,4.9,2.2C481.4,151.1,482.3,152.9,482.3,155.1 M333.3,144.4c0,1.8-1.3,4.5-3.6,6.7
		c-0.4,0.4-1.8,1.3-1.8,1.3c0-2.7,1.3-5.4,1.3-7.6C330.6,144.4,332,143.5,333.3,144.4 M403.3,150.2c-2.3,0-5.4,0-7.2-1.3
		c-2.7-1.8-3.6-2.7-4.9-4c1.8-1.3,4-1.3,5.4-1.8C397.9,144.8,400.2,148.4,403.3,150.2 M425.8,148c0,1.3-0.9,1.8-1.8,2.7
		c0,0-1.8-2.2-1.8-3.6c0-1.3,0-2.7,0.4-4C424,144.4,425.8,146.2,425.8,148 M446.4,148.9c-4-2.7-6.7-6.7-10.3-10.8
		c3.6,0,4.9,3.6,7.6,4c0.9,0.9,1.8,1.3,2.7,2.7V148.9z M362.9,137.6c0,3.1-0.5,7.2-3.6,8.5l-1.4-4.5
		C359.8,140.8,361.1,139.4,362.9,137.6 M353.1,144.8c-2.7-2.7-5-5.4-5-8.1c1.4,0,2.7,0,4.1,1.3C352.2,140.3,353.5,142.1,353.1,144.8
		 M481.4,144.4c-4-1.8-9.9-3.6-13-3.6c-1.8,0-7.2,2.2-9.4,4.5l-0.9-4.5c3.1-0.5,3.1-2.7,4.9-2.7c1.4,0,3.2-0.5,4.5-0.5
		c1.3,0,2.2-1.3,3.1-1.3c1.8,0,0.9,2.7,2.7,2.7c1.4,0,1.8-0.9,3.1-0.9C478.7,138.1,481,141.7,481.4,144.4 M373.3,144.8
		c-2.3-1.3-6.3-1.8-5.8-4.5c1.3-2.2,2.7-2.7,3.6-4C371.5,139.4,371.9,142.1,373.3,144.8 M414.5,142.1l-2.2,0.9
		c-4.9,0-7.6-1.4-9.9-3.6c1.8,0,4.5-1.8,4.5-1.8C409.2,139.4,412.3,141.7,414.5,142.1 M327,137.6c-1.8,1.8-4,3.1-5.4,5.8
		c0-1.3-0.4-2.7-0.9-4c0.5-1.3,1.8-2.7,2.7-3.1C324.4,136.7,325.7,136.7,327,137.6 M384.5,143c-1.8,0.4-4.9,1.3-6.3-0.9
		c-2.7-4-0.9-8.1,0.4-11.2c0.9,2.7,1.3,5.4,1.8,8.1C380.9,140.8,383.6,141.7,384.5,143 M419.9,135.4c-1.8,0.9-5.4,1.4-8.1-0.5
		l3.6-2.2C416.8,134,418.6,134.9,419.9,135.4 M470.6,134c-2.7,0-3.6-0.4-5.8-0.4c-1.8,0-4.5,1.3-6.3,3.1c-0.9-1.4-0.4-2.7,0-4
		c1.3-1.4,3.6-3.1,5.8-3.1C467.5,129.6,470.6,132.3,470.6,134 M338.3,139c-3.1-0.9-6.3-3.6-7.6-6.3c-0.9-1.8-1.3-4-1.3-5.8
		c1.8,0.5,3.1,1.8,4,2.7v0.4C335.1,132.7,337.8,135.4,338.3,139 M344.1,131.3l-0.9,6.3c-1.8-2.7-3.1-5.4-3.6-9L344.1,131.3z
		 M390.3,136.7c-2.7,0.9-4.5-1.4-6.3-2.7c-1.3-2.7-1.3-5.4-2.2-7.2c2.2,1.8,5.8,1.8,5.4,5.8C387.2,134,389,135.4,390.3,136.7
		 M401.1,131.3c-2.7,0-5.8,1.4-7.2-1.3c0.9-0.4,1.8-1.8,3.1-2.7L401.1,131.3z M471.1,126.9c-3.2-0.9-5.4-1.8-8.1-1.8
		c-1.3,0-5.4,0.9-5.8,1.8c-1.4-1.3,0.9-5.4,2.7-6.3c1.8-0.9,3.1-0.4,4.1,0c0,2.7,3.1,1.3,4.9,2.2
		C469.7,124.2,470.6,125.5,471.1,126.9 M409.6,124.6c-0.9,1.3-2.2,0-3.1,0h-4c-0.5-1.3-0.9-1.8-1.3-2.7c2.3-0.4,3.6-1.3,4.9-0.4
		C407.4,122.8,407.8,124.6,409.6,124.6 M371,117.4c-0.4,2.7-1.3,7.2-4,8.5c0-1.3-1.3-2.7-2.2-4c-0.4,0,0,1.3-0.4,1.3
		c0,1.3-0.4,2.7-0.4,4.9c-1.4,0.4-3.2,1.3-4.9,0.4v-1.3c-0.9-1.3-0.9-2.7-0.9-4l-0.4-0.5c-0.9,0.5-0.9,1.8-0.9,2.7
		c-0.4,0.5-1.8,1.8-1.8,3.1c-1.4,0-2.7-0.4-4.1-1.3v-4.5c0-0.9,0-0.9-0.4-0.9l-2.3,2.7c-1.8-1.8-2.2-5.4-2.2-8.1
		c7.6-4,16.6-2.7,22.4-0.4C369.2,116.5,370.1,116.5,371,117.4 M406,113.9c-2.7,0-4-1.3-5.4-4c0-1.3-0.5-3.1,0-5.4
		c0.4,1.3,0.9,2.7,1.8,3.6c1.8-0.9,1.8,1.3,2.2,1.8C405.1,111.2,406,112.5,406,113.9 M396.2,91.9c0,0.5-0.9,4-0.9,4l-3.6,1.4
		l2.3-10.3C394.8,88.7,396.2,90.5,396.2,91.9 M324.8,84.2l-1.8,2.7c0.5,4.9-1.8,8.1-1.8,12.1l-2.2-7.2c0.4-2.2,0.9-4,2.2-6.3
		L324.8,84.2z M395.2,112.5c-5.4-3.2-11.7-5.4-18.4-5.8c0,1.3,0,2.7-0.4,3.1c5.4,2.7,10.8,5.4,15.3,9.4v4
		c-4.5-4.5-9.9-9.4-16.2-10.8c-0.4,0.9-1.8,2.2-2.7,3.6c-3.1-2.3-6.7-4-10.8-4.9c-1.4,0-1.8-1.8-1.8-3.2l-0.5-2.2
		c2.3-0.5,4-2.2,4.5-4.5c0.4,0.4,1.3,0.4,2.2,0.4c0.9-0.4,0.9-1.3,0.9-2.7c0-2.7-5.8-2.7-8.5-2.7c-3.1,0-5.4-0.5-7.6,1.3
		c-0.9,0-0.5,1.3-0.5,2.2c0,0.4,1.4,1.3,1.4,1.3c1.3,0,1.8-0.9,2.7-0.9c-0.5,2.7,0.9,4.5,3.1,5.4l-0.4,4c-1.4,1.3-3.6,0.4-5.4,1.3
		c-2.7,1.3-5.4,2.7-8.1,4c-1.3-1.3-2.2-2.7-3.1-4c-4.5,1.3-7.2,4-11.7,6.7c-1.3,0.9-3.6,2.7-3.6,2.7c-0.4-0.4,0-1.8,0-3.1
		c4-4,9.4-5.4,13.9-8.1v-3.6c-1.8-0.5-3.6,0-5.8,0c-4,0.9-8.1,2.7-11.2,4.9c0-1.3-0.9-2.7,0.4-3.6c4.9-2.7,10.8-4.5,17.1-4v-1.8
		c-0.4-0.9-0.4-2.3-1.3-2.3c-2.7-3.1-5.4-6.7-5.4-9.9l1.3-0.9c-0.9-2.7-1.3-9.4,0-12.6c-2.7-0.9-5.4-3.6-6.3-5.4
		c-0.9-2.3-1.8-3.6-2.2-6.3c0.9-2.7,2.2-4,3.6-6.7c0.9,0,2.3-0.4,2.7-1.3c2.2-0.4,4-2.7,6.7-1.3c1.8,0,3.6,0.9,4.9,1.3
		c0,0.9,0,1.3,1.4,2.2c2.7,0.4,2.7,3.1,4,5.4c1.3,0.5,2.7,0.5,4,0.5c2.7,0.9,4.5,0.9,5.8,2.2c3.6-2.2,7.6-2.7,11.6-2.2
		c0.5-1.8,1.4-3.1,1.8-5.4c0.9,0.9,0.5-0.4,1.3-0.4c2.2-1.3,4.5-3.6,7.6-2.7c2.2,1.3,5.4,0.4,6.7,3.1c1.8,1.3,2.7,4,4,6.7
		c-1.3,2.7,0,6.7-2.7,8.1l-2.7,2.7c-0.9,0-1.3,0.9-2.7,0.9c1.3,3.1,0.5,8.1-0.9,11.2c0.9-0.4,2.2-0.4,2.7-1.8c0.4,0.4,0,1.3,0,1.8
		c-0.5,0.9-0.5,1.4-0.5,1.4c0.5,2.7-1.3,4.9-3.1,6.7c-0.9,2.7-3.1,6.3-6.3,6.7v1.3c6.7,0,12.6,1.3,18.8,4.9L395.2,112.5z
		 M496.2,82.9c-1.3-1.3-2.7-2.7-4.5-2.7c-1.3-1.8-3.1-4-4.9-4c1.4-0.5,3.2-1.3,5.4-1.3c1.3,2.2,2.7,4,3.1,5.4L496.2,82.9z
		 M323.9,77.5l-3.1,1.3l0.5-2.7c0.9-1.3,1.3-2.7,2.7-4V77.5z M481.9,73c-1.8,0-3.1,0.4-5,0c-0.9-0.9-2.2,0-3.1,0.4
		c-0.9,0-1.8-0.4-3.1-1.3c2.7,0,4-1.8,6.3-2.7C478.7,70.8,480.5,71.7,481.9,73 M382.7,202.7c0-1.8-1.3-2.7-3.1-2.7
		c-1.3,0-3.1,1.8-3.1,2.7c0,1.8-1.3,12.1-1.3,12.1h3.6C380,210.4,382.7,205,382.7,202.7 M372.4,202.3h-0.5l-3.6-3.6h-0.5
		c-0.9,0.9-1.3,2.3-2.2,3.6c0,4.1,1.3,8.5,2.2,12.6h4C371.9,210.4,372.4,206.3,372.4,202.3 M444.6,196.9l-4.5,0.5
		c1.3,1.3,1.3,3.1,1.3,4c0,1.3-0.5,2.7-1.3,3.6c-1.4-0.9-1.4-2.2-2.3-3.6c-0.9,0-1.3,2.2-1.3,3.2c0,4.5,1.8,7.6,3.1,10.3h4.5
		c-0.5-4-1.3-7.2-1.3-11.2C442.8,201.4,444.2,198.7,444.6,196.9 M546,153.8c0-18.8-6.3-39-23.3-56.1c-2.7-2.7-6.3-5.8-9.9-8.1
		c-6.7-4.5-13-10.8-16.6-17.5c-2.2-2.7-4-4-6.7-5.4c0.5,1.3,1.3,2.7,1.8,4h-0.5c-2.7,0-4.9-1.3-6.7-2.7l1.8-1.8
		c-0.5-0.9-1.8-0.9-2.7-0.9c-8-1.3-14.8,2.7-22,4v0.9c4.5,1.8,5.4,7.2,8.1,9.9h2.7c1.3,0,2.7,1.3,3.6,0.9c0-0.9-0.9-2.3-0.9-2.7
		c0.9-0.9,1.8-0.9,2.7,0c2.2,1.3,5.8-0.9,7.6,2.7c-2.7,0-5.4,0.4-7.6,1.3c0,0.5,1.4,1.8,0.9,2.7c-2.2-0.9-4.9,0-6.3-2.3l-0.5,0.9
		c3.2,3.1,7.2,5.8,11.2,7.2c6.3,1.3,11.6-1.8,17.5-0.5c6.7,3.1,12.1,7.2,16.6,11.7c14.8,15.7,20.2,32.3,20.2,47.1
		c0,18.4-5.4,31.4-13.5,39.5c-5,5-11.2,9.4-18.9,9.4c-1.8,0-5.4-0.5-7.6-2.2c1.3-5.4,2.2-11.2,2.2-19.7c0-5,0-18-6.3-33.2
		c-1.4-3.1-6.3-13-12.6-19.7c-4.9-4.9-10.8-9.4-16.6-9.4c-2.7,0-5.4,0.5-7.7,2.3c-2.2,2.2-3.6,5.8-3.1,8.5c-4,2.2-9.9,4-14.8,4
		c-5.8,0-12.1-3.1-17.5-6.7v-6.7c-3.1-1.3-4-2.7-4.5-5.4l0.4-0.5c1.3,0.5,2.3,1.3,3.1,1.8c-0.4-3.2-0.9-6.7-2.7-9.4
		c-1.3,0-2.7-0.4-4.1-1.3c-1.8-1.3-2.7-3.1-2.7-5.4c1.4,2.2,3.6,1.3,4.9,2.7c-2.3-5.4-1.3-8.1-5.4-16.6c-1.3-4-5.4-6.3-8.1-9
		c-1.3-1.3-1.8-2.7-4-2.7c-1.3-0.5-1.3-2.7-1.8-4c0.9,0,1.8,0.9,2.7,1.3c-2.2-6.7-4.5-13.5-10.8-17.5l-0.9,0.9
		c-2.7,0.4-5.4,0.4-7.6,0.4c0.9-1.3,2.7-1.8,4.5-2.7c-1.8-1.3-3.1-1.8-5.8-1.8c-0.9,0.5-3.1,1.8-4.9,1.8h-0.5c0-1.3-0.4-3.2,2.2-4
		c-2.7-0.5-4.9-0.5-8.1,0c-0.5,2.2-2.2,3.6-2.2,5.4c-1.3,1.3-1.8,2.7-3.1,4c0-3.1,1.3-5.8,1.8-8.5c-1.8,0.5-4,1.8-5.4,1.8
		c-3.6-1.8-8.1-4-9.9-4c2.7,2.2,1.4,5.4,1.8,8.1l-1.8-1.3c-0.9-1.8-2.7-3.1-3.6-5.4c-2.7,0-4.5,0.9-6.7,2.2l-0.4,0.5
		c1.8,0,3.6,1.3,4.5,2.7c-3.1,0-5.4-1.3-8.5-1.3c0,0,0-0.5-0.9-0.5c-1.3,0.5-2.7,1.8-3.6,2.7c-3.1,2.7-5.4,5.4-7.2,9.4
		c0.9,0,2.2,0,2.7,0.5c-1.4,0.9-2.7,2.7-4.5,3.6v6.7c-1.3,1.8-3.1,3.1-4,5.4c-2.2,8.1-2.7,16.6-2.7,26c-0.9,1.3-1.8,1.8-2.7,2.2v8.1
		c0,0,3.1-3.1,4.5-4c0,1.8-0.4,4.5-0.4,6.3c-1.3,0-3.1,1.8-3.1,3.6c0,1.8,0.4,3.6,0.4,5.4c0,0.9,0,1.3,0.5,2.2
		c0.5-0.9,1.3-2.2,2.2-2.7c0.4,0,1.3-0.9,2.7-0.9c-0.9,1.3-1.3,3.6-2.2,5.4l-1.3,1.3c0,0-0.4,0.9-0.4,1.3c1.3,9.4,4.5,18.4,8.1,27.8
		c-3.1,6.3-6.3,13-7.6,17.9c-1.3,3.6-3.1,10.8-3.1,10.8c-2.2-2.2-5.4-2.7-8.1-2.7c-3.1,0.5-5.8,1.3-8.1,4c-2.7-1.3-6.3-0.9-8.1,1.3
		c-4,3.6-4,5.4-4,8.1c-1.3,1.3-3.1,3.6-3.1,6.7c0,4.5,0.9,7.2,3.1,10.8h71.3c-0.9-1.3-1.8-3.1-2.7-4.5c-1.3-2.7-0.4-6.3-0.4-9
		c1.3-2.7,3.1-5.4,4.5-8.1c0.4-1.3,0-1.3,0.9-1.8l3.1-1.3c1.8,0,3.1-0.9,5.4-0.9c1.8,2.2,1.8-1.8,4-2.7c5.4-0.5,9.9,0,12.6,4
		c0,0.9,0.9,0.9,0.9,1.4h-2.2c-2.7-1.4-6.3-2.7-9.4-1.4c0,1.4-0.5,1.4-0.5,2.7v2.2c1.8,0.4,3.1,1.8,4.9,3.1c0.9-1.8,3.6-3.1,5.8-3.1
		c2.2,0,5.8,1.3,5.8,5.4c0,1.8-0.5,3.6-0.5,5.4c1.8,1.3,4.5,1.8,6.7,3.1c-0.9,1.4-2.2,1.4-3.6,1.4h-4c-0.5-0.5-1.3-0.5-1.3-1.4
		c-1.3,1.4-2.2,3.6-3.1,5.4h54.8c-0.9-1.8-1.8-3.1-2.2-4.5c-1.3-2.7-0.9-6.3-1.3-9l5.4-7.2c2.7,0,5.4-0.9,10.3-1.3
		c0.9-1.4,0-2.3,4-2.7c3.6,0,5.8,1.3,6.8,1.8c0.4,0.9,0.4,0.9,0,1.8c-0.9,0.9-2.7-0.9-4-0.5c-0.9,0.9,0.5,1.3,0.5,2.2
		c0.9,0.9-4-0.9-4-0.9s-1.4,2.7-1.8,4c0,0,2.2,1.3,2.7,2.7c0.9,1.3-0.9,2.7-0.9,4c-1.4-0.5-2.7-1.8-3.2-1.4c-0.9,3.6,0,6.7-0.5,10.8
		h5l0.9-8.1c0.5-4.5,5.8-13,9-13c2.3,0,3.2,0.9,4.9,2.2c1.3,1.3,3.1,2.7,3.1,3.6c0,0.5-1.3,1.4-3.6,1.4c-0.9,0-1.3-1.4-2.2-2.3
		l-2.7,2.7c0,0,3.1,2.7,3.1,4.9c0,1.8-0.4,3.1-2.2,4l-2.7-5.4c-1.3,0-3.6,2.7-3.6,4.5c0,1.8-0.9,2.7-0.9,5.4h29.2
		c3.2,0,5.8-0.9,9-2.7h5.8c8.1,0,18.4-1.3,29.2-11.7C545.1,184.3,546,162.3,546,153.8 M364.3,214.8c-2.2-4.5-2.7-10.8-2.7-12.1
		c0-2.7,0-5.8,1.3-8.1l-5.4,1.3c-0.9,1.3-1.4,2.7-1.4,3.6l1.8-0.9c0.9,0,1.4,0.9,1.8,1.3c-0.4,2.7-3.1,2.7-4.5,3.6
		c-1.3,4.5,2.7,7.2,3.6,11.2L364.3,214.8z"/>
</g>
</svg>
