<?xml version="1.0" encoding="utf-8"?>
<!-- Generator: Adobe Illustrator 25.3.1, SVG Export Plug-In . SVG Version: 6.00 Build 0)  -->
<svg version="1.1" id="Laag_1" xmlns="http://www.w3.org/2000/svg" xmlns:xlink="http://www.w3.org/1999/xlink" x="0px" y="0px"
	 viewBox="0 0 807.6 405.2" style="enable-background:new 0 0 807.6 405.2;" xml:space="preserve">
<style type="text/css">
	.st0{fill:#FFFFFF;}
</style>
<g>
	<g>
		<path class="st0" d="M302,104.7c-0.7-0.7-1.7-1.1-2.6-1.1l-12.1,0c-2.1,0-3.7,1.7-3.7,3.7l-0.1,44.2c0,0.5-0.4,1-1,1l-20-0.1
			c-0.5,0.1-1-0.4-1-1l0.1-44.2c0-1-0.4-1.9-1.1-2.6c-0.7-0.7-1.6-1.1-2.6-1.1l-12.1,0c0,0,0,0,0,0c-2.1,0-3.7,1.7-3.7,3.7
			l-0.3,120.4c0,2,1.6,3.7,3.6,3.7c0,0,0.1,0,0.1,0l12.1,0c1,0,1.9-0.4,2.6-1.1c0.7-0.7,1.1-1.6,1.1-2.6l0.2-57.2
			c0-0.3,0.1-0.5,0.3-0.7c0.2-0.2,0.4-0.3,0.7-0.3l20,0.1c0.3,0,0.5,0.1,0.7,0.3c0.2,0.2,0.3,0.4,0.3,0.7l-0.2,57.2
			c0,2.1,1.7,3.7,3.7,3.7l12.1,0c1,0,1.9-0.4,2.6-1.1s1.1-1.6,1.1-2.6l0.3-120.4C303.1,106.4,302.7,105.4,302,104.7z"/>
		<path class="st0" d="M350.2,106.5c-0.4-1.7-1.9-2.9-3.7-2.9c0,0,0,0,0,0l-9.3,0c0,0,0,0,0,0c-1.7,0-3.3,1.3-3.6,3L307.9,227
			c-0.2,1.1,0,2.3,0.8,3.1c0.7,0.9,1.8,1.4,2.9,1.4c0,0,0,0,0,0l11.4,0c1.8,0,3.3-1.3,3.7-3l4-20.6c0.1-0.5,0.5-0.8,0.9-0.8
			l20.9-0.1c0,0,0,0,0,0c0.5,0,0.9,0.3,0.9,0.8l4,20.6c0.3,1.7,1.9,3,3.7,3c0,0,0,0,0,0l11.8-0.1c1.1,0,2.2-0.5,2.9-1.4
			c0.7-0.9,1-2,0.7-3.1L350.2,106.5z M349.7,190.8c-0.1,0.1-0.3,0.3-0.7,0.4c0,0,0,0,0,0l-14.3,0.1c0,0,0,0,0,0
			c-0.4,0-0.6-0.2-0.7-0.3s-0.3-0.4-0.2-0.8l2.5-13.3c1.6-8.6,3-16.8,4.1-24.6c0.2-1.2,0.4-2.4,0.5-3.6c0.1-0.7,0.7-0.8,0.9-0.8
			c0,0,0,0,0,0c0.2,0,0.8,0.1,1,0.8c1.2,8.3,2.5,16.5,3.9,24.2l3.3,17.1C350,190.4,349.8,190.7,349.7,190.8z"/>
		<path class="st0" d="M408.5,105l-19.8-0.7c-1,0-1.9,0.3-2.7,1c-0.7,0.7-1.2,1.6-1.2,2.6l-4.3,120.3c0,1,0.3,1.9,1,2.7
			c0.7,0.7,1.6,1.1,2.5,1.2c0,0,0,0,0.1,0l12.1,0.4c1,0,1.9-0.3,2.7-1c0.7-0.7,1.2-1.6,1.2-2.6l1.8-50.8c0-0.5,0.4-0.9,1-0.9
			c8.3,0.1,15-0.8,19.7-2.7c10.4-4.7,16-15.8,16.6-32.9c0.4-12.1-1.8-21.2-6.7-27.1C427.7,108.6,419.6,105.4,408.5,105z
			 M418.9,142.6c-0.2,6.9-1.7,11.6-4.2,14.1c-2.1,2.1-5.9,3.2-11.1,3.3c-0.3,0-0.5-0.1-0.7-0.3c-0.2-0.2-0.3-0.4-0.3-0.7l1.3-36.2
			c0-0.3,0.1-0.5,0.3-0.7c0.2-0.2,0.4-0.3,0.7-0.3c5.2,0.2,8.7,1.8,10.9,5C418.2,130.2,419.2,135.4,418.9,142.6z"/>
		<path class="st0" d="M467.7,103.6l-19.8,0.4c-2,0-3.7,1.8-3.7,3.8l2.4,120.3c0,2.1,1.7,3.7,3.8,3.7l12.1-0.2c0,0,0.1,0,0.1,0
			c1,0,1.9-0.4,2.5-1.1c0.7-0.7,1.1-1.7,1-2.7l-1-50.8c0-0.5,0.4-1,0.9-1c8.4-0.3,14.9-1.6,19.5-3.8c10.1-5.3,15.1-16.7,14.8-33.8
			c-0.2-12.1-3-21.1-8.2-26.7C487,106.1,478.8,103.4,467.7,103.6z M476.8,154.8c-2,2.2-5.7,3.5-10.9,3.9c-0.2,0.1-0.5-0.1-0.7-0.3
			c-0.2-0.2-0.3-0.4-0.3-0.7l-0.7-36.2c0-0.3,0.1-0.5,0.3-0.7c0.2-0.2,0.4-0.3,0.7-0.3c5.1-0.1,8.8,1.3,11.2,4.4
			c2.5,3.1,3.8,8.3,3.9,15.5C480.3,147.3,479.2,152.2,476.8,154.8z"/>
		<path class="st0" d="M562.6,106.5l-12.5-0.9c0,0,0,0,0,0c-1.7-0.1-3.3,0.9-3.8,2.6l-8.4,26l-4.7,15.2c-0.2,0.6-0.4,1.3-0.6,2
			c-0.2,0.7-0.8,0.7-1,0.7c-0.2,0-0.8-0.1-0.9-0.8c-0.7-4-1.7-8.5-2.8-13.3c-0.3-1.1-0.5-2.2-0.7-3.1c-0.2-1-0.4-1.9-0.6-2.8
			l-5.9-26c-0.4-1.6-1.7-2.8-3.4-2.9l-12.7-0.9c0,0,0,0,0,0c-1.2-0.1-2.4,0.4-3.2,1.4c-0.8,0.9-1,2.2-0.7,3.4l19.9,69.3
			c0,0.1,0,0.2,0,0.3l-3.6,50.9c-0.1,1,0.2,2,0.9,2.7c0.7,0.8,1.6,1.2,2.6,1.3l12.1,0.9c0,0,0,0,0,0c2.1,0.1,3.8-1.4,4-3.5l3.6-51
			c0-0.1,0-0.2,0.1-0.3l25.6-66.3c0.4-1.1,0.3-2.3-0.3-3.3C564.8,107.2,563.8,106.6,562.6,106.5z"/>
	</g>
	<g>
		<path class="st0" d="M298.3,245.8l-12.1,0c0,0,0,0,0,0c-2,0.1-3.7,1.7-3.7,3.7l-0.1,120.4c0,1,0.4,1.9,1.1,2.6
			c0.7,0.7,1.6,1.1,2.6,1.1l12.1,0c0,0,0,0,0.1,0c2,0,3.7-1.7,3.7-3.7l0.1-120.4C302,247.5,300.4,245.8,298.3,245.8z"/>
		<path class="st0" d="M363.6,264.1c0.7-0.7,1.2-1.6,1.3-2.6l0.6-10c0.1-2.1-1.4-3.8-3.5-4l-50-3.2c-1-0.1-2,0.3-2.7,0.9
			c-0.7,0.7-1.2,1.6-1.3,2.6l-0.6,10c-0.1,1,0.3,2,0.9,2.7s1.6,1.2,2.6,1.3l14.7,0.9c0.3,0,0.5,0.1,0.7,0.3c0.2,0.2,0.3,0.4,0.2,0.7
			l-6.8,105.4c-0.1,2.1,1.4,3.8,3.5,4l11.8,0.8c0.1,0,0.1,0,0.2,0c0.9,0,1.8-0.3,2.5-0.9c0.7-0.7,1.2-1.6,1.3-2.6l6.8-105.4
			c0-0.3,0.1-0.5,0.3-0.7c0.2-0.2,0.4-0.3,0.7-0.2l14.1,0.9C361.9,265.1,362.9,264.7,363.6,264.1z"/>
		<path class="st0" d="M396.9,248.9c-0.3-1.7-1.8-3-3.6-3l-9.3-0.2c-1.7,0-3.3,1.2-3.7,2.9L352,368.5c-0.3,1.1,0,2.3,0.7,3.2
			c0.7,0.9,1.7,1.4,2.9,1.4l11.3,0.2c1.8,0,3.3-1.2,3.7-3l4.4-20.5c0.1-0.5,0.5-0.8,1-0.8l20.9,0.4c0.5,0,0.9,0.3,0.9,0.8l3.6,20.6
			c0.3,1.8,1.8,3.1,3.6,3.1c0,0,0,0,0,0l11.8,0.2c1.1,0,2.2-0.5,2.9-1.3c0.7-0.9,1-2,0.8-3.1L396.9,248.9z M378.6,332.1l2.8-13.2
			c1.8-8.5,3.3-16.8,4.7-24.5c0.2-1.2,0.4-2.4,0.6-3.6c0.1-0.7,0.7-0.8,0.9-0.8c0.2,0,0.9,0.1,0.9,0.9c1,8.4,2.1,16.5,3.4,24.3
			l2.9,17.2c0.1,0.4-0.1,0.7-0.2,0.8c-0.1,0.1-0.4,0.3-0.7,0.3l-14.3-0.3h0c-0.4,0-0.6-0.2-0.7-0.4
			C378.7,332.8,378.5,332.5,378.6,332.1z"/>
		<path class="st0" d="M474.8,355.9c-0.7-0.7-1.7-1-2.7-0.9l-22.8,1.5c-0.5,0-1-0.4-1-0.9l-6.8-105.9c-0.1-2.1-1.9-3.6-4-3.5
			l-12.1,0.8c-2.1,0.1-3.6,1.9-3.5,4l7.8,120.1c0.1,1,0.5,1.9,1.3,2.6c0.7,0.6,1.6,0.9,2.5,0.9c0.1,0,0.2,0,0.2,0l39.6-2.6
			c1-0.1,1.9-0.5,2.6-1.3c0.7-0.7,1-1.7,0.9-2.7l-0.6-9.5C476,357.4,475.5,356.5,474.8,355.9z"/>
		<path class="st0" d="M521.9,249c0.3-1.2,0.1-2.4-0.7-3.3c-0.7-0.9-1.9-1.5-3-1.4l-12.6,0.4c-1.7,0.1-3.2,1.3-3.5,3l-5.7,26.7
			l-3.1,15.6c-0.1,0.6-0.3,1.3-0.4,2.1c-0.1,0.7-0.7,0.8-0.9,0.8c-0.2,0-0.8,0-1-0.7c-1.1-3.9-2.5-8.3-4.2-12.9
			c-0.4-1.1-0.8-2.1-1-3.1c-0.3-1-0.6-1.9-0.9-2.7l-8.6-25.3c-0.5-1.6-2-2.6-3.7-2.5l-12.7,0.4c-1.2,0-2.3,0.7-3,1.7
			c-0.7,1-0.8,2.3-0.3,3.4l26.9,66.9c0,0.1,0.1,0.2,0.1,0.3l1.6,51c0.1,2,1.7,3.6,3.8,3.6c0,0,0.1,0,0.1,0l12.1-0.4
			c2.1-0.1,3.7-1.8,3.6-3.9l-1.6-51.1c0-0.1,0-0.2,0-0.3L521.9,249z"/>
	</g>
	<g>
		<path class="st0" d="M402.1,69.5c27.4,29.6,98,19.3,113-1.5c9.2-12.8,8-33.3-9.9-37c-12.9-2.7-19.8,11.2-11.9,16.3
			c-0.6-0.5-1.7-2-0.7-4.9c1.3-3.9,7.6-5.1,11.4-2c8.4,7,5.8,18.2-1.8,24.3c-13.6,11-63.9,0.7-77.8-3.3c-5.8-1.7-10.6-3.2-14.6-4.6
			c-3.1-1.1-5.7-2.1-7.9-3c0,0,0,0,0,0c-2.2,0.9-4.8,1.9-7.9,3c-4,1.4-8.7,2.9-14.6,4.6c-13.9,4-64.2,14.4-77.8,3.3
			c-7.6-6.1-10.2-17.4-1.8-24.3c3.8-3.1,10.1-1.9,11.4,2c1,2.9-0.1,4.3-0.7,4.9c8-5.2,1.1-19-11.9-16.3c-17.9,3.7-19.1,24.2-9.9,37
			C304,88.7,374.7,99.1,402.1,69.5z"/>
	</g>
</g>
</svg>
