<?xml version="1.0" encoding="utf-8"?>
<!-- Generator: Adobe Illustrator 26.3.1, SVG Export Plug-In . SVG Version: 6.00 Build 0)  -->
<svg version="1.1" id="Layer_1" xmlns="http://www.w3.org/2000/svg" xmlns:xlink="http://www.w3.org/1999/xlink" x="0px" y="0px"
	 viewBox="0 0 141 58" style="enable-background:new 0 0 141 58;" xml:space="preserve">
<style type="text/css">
	.st0{fill:#03B5AA;}
	.st1{fill:#F9F4F0;}
</style>
<path class="st0" d="M136.2,22.3l3.6-18.9c0.2-1.3-1.2-2.2-2.3-1.6L121.1,12c-1.1,0.7-0.8,2.5,0.5,2.7l7.3,1.6
	c0.4,0.1,0.7,0.3,0.9,0.7l3.6,5.8C134.2,23.9,136,23.6,136.2,22.3z"/>
<path class="st0" d="M4,22h120c2.2,0,4,1.8,4,4v28c0,2.2-1.8,4-4,4H4c-2.2,0-4-1.8-4-4V26C0,23.8,1.8,22,4,22z"/>
<path class="st1" d="M11.7,46H9.2V30.9h3l2.5,9l2.5-9h3V46h-2.4V35.4l-2,7.3h-2.2l-2-7.3V46z M28.4,34.2h2.7V46h-2.7v-1.2
	c-0.2,0.8-0.8,1.2-1.7,1.2H26c-1.6,0-2.4-0.8-2.4-2.4v-9.4h2.7v9c0,0.3,0,0.4,0.1,0.5c0.1,0.1,0.3,0.1,0.5,0.1h0.7
	c0.5,0,0.7-0.3,0.7-0.8V34.2z M38.4,43.4v-1.7c0-0.3,0-0.4-0.1-0.5c-0.1-0.1-0.3-0.1-0.6-0.1h-1.3c-1.7,0-2.6-0.8-2.6-2.4v-2.2
	c0-1.6,0.9-2.4,2.6-2.4h1.9c1.7,0,2.6,0.8,2.6,2.4v1.1h-2.6v-0.9c0-0.3,0-0.4-0.1-0.5c-0.1-0.1-0.3-0.1-0.5-0.1h-0.5
	c-0.3,0-0.5,0-0.6,0.1c-0.1,0.1-0.1,0.2-0.1,0.5v1.7c0,0.3,0,0.4,0.1,0.5c0.1,0.1,0.3,0.1,0.6,0.1h1.3c1.7,0,2.6,0.8,2.6,2.4v2.1
	c0,1.6-0.9,2.4-2.6,2.4h-1.9c-1.7,0-2.6-0.8-2.6-2.4v-1.1h2.7v0.9c0,0.3,0,0.4,0.1,0.5c0.1,0.1,0.3,0.1,0.5,0.1h0.5
	c0.3,0,0.5,0,0.6-0.1C38.4,43.8,38.4,43.7,38.4,43.4z M48.6,34.2h2.7V46h-2.7v-1c-0.2,0.7-0.8,1-1.7,1h-0.7c-1.6,0-2.4-0.8-2.4-2.4
	v-7c0-1.6,0.8-2.4,2.4-2.4h0.7c0.9,0,1.5,0.4,1.7,1.2V34.2z M47.1,43.9h0.7c0.5,0,0.7-0.3,0.7-0.8v-6c0-0.5-0.2-0.8-0.7-0.8h-0.7
	c-0.3,0-0.4,0-0.5,0.1c-0.1,0.1-0.1,0.2-0.1,0.5v6.3c0,0.3,0,0.4,0.1,0.5C46.6,43.8,46.8,43.9,47.1,43.9z M64.9,36.7v-3.2
	c0-0.3,0-0.4-0.1-0.5c-0.1-0.1-0.3-0.1-0.6-0.1H62v4.5h2.2c0.3,0,0.5,0,0.6-0.1C64.9,37.1,64.9,36.9,64.9,36.7z M64.9,43.3V40
	c0-0.3,0-0.4-0.1-0.5c-0.1-0.1-0.3-0.1-0.6-0.1H62V44h2.2c0.3,0,0.5,0,0.6-0.1C64.9,43.8,64.9,43.6,64.9,43.3z M59.3,30.9H65
	c1.7,0,2.6,0.8,2.6,2.4v3.3c0,1-0.3,1.6-1,1.8c0.7,0.2,1,0.8,1,1.7v3.6c0,1.6-0.9,2.4-2.6,2.4h-5.8V30.9z M75.5,34.2h2.7V46h-2.7v-1
	c-0.2,0.7-0.8,1-1.7,1H73c-1.6,0-2.4-0.8-2.4-2.4v-7c0-1.6,0.8-2.4,2.4-2.4h0.7c0.9,0,1.5,0.4,1.7,1.2V34.2z M73.9,43.9h0.7
	c0.5,0,0.7-0.3,0.7-0.8v-6c0-0.5-0.2-0.8-0.7-0.8h-0.7c-0.3,0-0.4,0-0.5,0.1c-0.1,0.1-0.1,0.2-0.1,0.5v6.3c0,0.3,0,0.4,0.1,0.5
	C73.5,43.8,73.7,43.9,73.9,43.9z M83.2,49.3h-1.6v-2.1h1.2c0.7,0,1.1-0.3,1.3-0.8l0.2-0.8H83l-2.7-11.4h2.8l1.7,9.1l1.6-9.1h2.7
	l-2.6,12.5C86,48.4,84.9,49.3,83.2,49.3z M95.5,43.4v-1.7c0-0.3,0-0.4-0.1-0.5c-0.1-0.1-0.3-0.1-0.6-0.1h-1.3
	c-1.7,0-2.6-0.8-2.6-2.4v-2.2c0-1.6,0.9-2.4,2.6-2.4h1.9c1.7,0,2.6,0.8,2.6,2.4v1.1h-2.6v-0.9c0-0.3,0-0.4-0.1-0.5
	c-0.1-0.1-0.3-0.1-0.5-0.1h-0.5c-0.3,0-0.5,0-0.6,0.1c-0.1,0.1-0.1,0.2-0.1,0.5v1.7c0,0.3,0,0.4,0.1,0.5c0.1,0.1,0.3,0.1,0.6,0.1
	h1.3c1.7,0,2.6,0.8,2.6,2.4v2.1c0,1.6-0.9,2.4-2.6,2.4h-1.9c-1.7,0-2.6-0.8-2.6-2.4v-1.1h2.7v0.9c0,0.3,0,0.4,0.1,0.5
	c0.1,0.1,0.3,0.1,0.5,0.1h0.5c0.3,0,0.5,0,0.6-0.1C95.4,43.8,95.5,43.7,95.5,43.4z M105.6,34.2h2.7V46h-2.7v-1c-0.2,0.7-0.8,1-1.7,1
	h-0.7c-1.6,0-2.4-0.8-2.4-2.4v-7c0-1.6,0.8-2.4,2.4-2.4h0.7c0.9,0,1.5,0.4,1.7,1.2V34.2z M104.1,43.9h0.7c0.5,0,0.7-0.3,0.7-0.8v-6
	c0-0.5-0.2-0.8-0.7-0.8h-0.7c-0.3,0-0.4,0-0.5,0.1c-0.1,0.1-0.1,0.2-0.1,0.5v6.3c0,0.3,0,0.4,0.1,0.5
	C103.7,43.8,103.9,43.9,104.1,43.9z M115.8,34.2h0.7c1.6,0,2.5,0.8,2.5,2.4V46h-2.7v-9c0-0.3,0-0.4-0.1-0.5
	c-0.1-0.1-0.3-0.1-0.5-0.1h-0.7c-0.5,0-0.7,0.3-0.7,0.8V46h-2.7V34.2h2.7v1.1C114.3,34.6,114.8,34.2,115.8,34.2z"/>
</svg>
