<?xml version="1.0" encoding="utf-8"?>
<!-- Generator: Adobe Illustrator 26.3.1, SVG Export Plug-In . SVG Version: 6.00 Build 0)  -->
<svg version="1.1" id="Layer_1" xmlns="http://www.w3.org/2000/svg" xmlns:xlink="http://www.w3.org/1999/xlink" x="0px" y="0px"
	 viewBox="0 0 61 58" style="enable-background:new 0 0 61 58;" xml:space="preserve">
<style type="text/css">
	.st0{fill:#03B5AA;}
	.st1{fill:#F9F4F0;}
</style>
<path class="st0" d="M7.8,22.8l3.6-5.8c0.2-0.3,0.6-0.6,0.9-0.7l7.3-1.6c1.3-0.3,1.6-2,0.5-2.7L3.7,1.8C2.6,1.1,1.2,2.1,1.5,3.4
	l3.6,18.9C5.4,23.6,7.1,23.9,7.8,22.8z"/>
<g>
	<path class="st0" d="M17,22h40c2.2,0,4,1.8,4,4v28c0,2.2-1.8,4-4,4H17c-2.2,0-4-1.8-4-4V26C13,23.8,14.8,22,17,22z"/>
	<g>
		<path class="st1" d="M28.9,48H26v-5.1l-3.7-11h3l2.2,8.2l2.1-8.2h3l-3.5,10.9V48z"/>
		<path class="st1" d="M36.2,35.5H39c1.8,0,2.7,0.8,2.7,2.5v7.5c0,1.7-0.9,2.5-2.7,2.5h-2.9c-1.8,0-2.7-0.8-2.7-2.5v-7.5
			C33.5,36.4,34.4,35.5,36.2,35.5z M38.9,45.2v-6.8c0-0.3-0.1-0.5-0.2-0.5c-0.1-0.1-0.3-0.1-0.6-0.1H37c-0.3,0-0.5,0-0.6,0.1
			c-0.1,0.1-0.2,0.3-0.2,0.5v6.8c0,0.3,0.1,0.5,0.2,0.5s0.3,0.1,0.6,0.1h1.2c0.3,0,0.5,0,0.6-0.1S38.9,45.4,38.9,45.2z"/>
		<path class="st1" d="M48.9,35.5h2.9V48h-2.8v-1.2c-0.2,0.8-0.8,1.2-1.8,1.2h-0.8c-1.7,0-2.6-0.8-2.6-2.5v-10h2.9v9.6
			c0,0.3,0.1,0.5,0.2,0.5c0.1,0.1,0.3,0.1,0.6,0.1h0.8c0.5,0,0.8-0.3,0.8-0.8V35.5z"/>
	</g>
</g>
</svg>
