<svg width="211" height="211" xmlns="http://www.w3.org/2000/svg" version="1.2">

 <g>
  <title>Layer 1</title>
  <path fill="#f9f4f0" id="svg_1" d="m196.1,130.2c-3.1,19.2 -14.3,35.3 -30.3,46.2c-32.2,21.9 -75.5,26 -113.4,25.2c-5.4,-0.1 -5.4,-8.4 0,-8.3c30.9,0.7 64.3,-2 92.9,-15c17.1,-7.8 33.5,-20.1 39.9,-38.6c7.7,-22.4 2.4,-46.5 -14.1,-63.5c-36.1,-37.3 -93.5,-39 -138.8,-18.7q22.9,3.1 45.7,6.1c5.3,0.7 5.3,9.1 0,8.4q-29.3,-4 -58.7,-7.9c-1.8,0.9 -3.5,0.4 -4.6,-0.8c-2.8,-1 -3.9,-4.1 -1.7,-6.8q19.6,-24.2 39.3,-48.5c3.4,-4.2 9.3,1.7 5.9,5.9q-14.6,18 -29.2,36c47.3,-21.1 107.8,-19.8 146.1,18.5c16.5,16.5 24.8,38.5 21,61.8z"/>
 </g>
</svg>